<mxfile host="Electron" modified="2024-05-27T10:41:10.729Z" agent="Mozilla/5.0 (Windows NT 10.0; Win64; x64) AppleWebKit/537.36 (KHTML, like Gecko) draw.io/24.4.0 Chrome/120.0.6099.109 Electron/28.1.0 Safari/537.36" etag="kqOIjlhci0iNpyDqrYGc" version="24.4.0" type="device">
  <diagram name="Page-1" id="vTd3luiGYQM1ggkQgTFo">
    <mxGraphModel dx="947" dy="622" grid="0" gridSize="10" guides="1" tooltips="1" connect="1" arrows="1" fold="1" page="1" pageScale="1" pageWidth="850" pageHeight="1100" background="#ffffff" math="0" shadow="0">
      <root>
        <mxCell id="0" />
        <mxCell id="1" parent="0" />
        <mxCell id="7jXJJxEpb_EreKCAJciz-1" value="VPC" style="sketch=0;outlineConnect=0;gradientColor=none;html=1;whiteSpace=wrap;fontSize=12;fontStyle=0;shape=mxgraph.aws4.group;grIcon=mxgraph.aws4.group_vpc;strokeColor=#000000;fillColor=none;verticalAlign=top;align=left;spacingLeft=30;fontColor=#879196;dashed=0;movable=0;resizable=0;rotatable=0;deletable=0;editable=0;locked=1;connectable=0;" vertex="1" parent="1">
          <mxGeometry x="80" y="40" width="680" height="400" as="geometry" />
        </mxCell>
        <mxCell id="7jXJJxEpb_EreKCAJciz-11" value="" style="rounded=1;arcSize=10;dashed=0;fillColor=none;gradientColor=none;strokeWidth=2;strokeColor=#000000;" vertex="1" parent="1">
          <mxGeometry x="335" y="137.5" width="186" height="149" as="geometry" />
        </mxCell>
        <mxCell id="7jXJJxEpb_EreKCAJciz-13" value="" style="rounded=1;arcSize=10;dashed=0;fillColor=none;gradientColor=none;strokeWidth=2;strokeColor=#000000;movable=1;resizable=1;rotatable=1;deletable=1;editable=1;locked=0;connectable=1;" vertex="1" parent="1">
          <mxGeometry x="546" y="140.5" width="186" height="149" as="geometry" />
        </mxCell>
        <mxCell id="7jXJJxEpb_EreKCAJciz-2" value="" style="rounded=1;arcSize=10;dashed=0;fillColor=none;gradientColor=none;strokeWidth=2;strokeColor=#000000;movable=1;resizable=1;rotatable=1;deletable=1;editable=1;locked=0;connectable=1;" vertex="1" parent="1">
          <mxGeometry x="107" y="136" width="186" height="149" as="geometry" />
        </mxCell>
        <mxCell id="7jXJJxEpb_EreKCAJciz-3" value="" style="dashed=0;html=1;shape=mxgraph.aws3.permissions;fillColor=#D9A741;gradientColor=none;dashed=0;" vertex="1" parent="1">
          <mxGeometry x="122" y="119" width="30" height="35" as="geometry" />
        </mxCell>
        <mxCell id="7jXJJxEpb_EreKCAJciz-5" value="" style="outlineConnect=0;dashed=0;verticalLabelPosition=bottom;verticalAlign=top;align=center;html=1;shape=mxgraph.aws3.ec2;fillColor=#F58534;gradientColor=none;" vertex="1" parent="1">
          <mxGeometry x="157" y="164" width="76.5" height="93" as="geometry" />
        </mxCell>
        <mxCell id="7jXJJxEpb_EreKCAJciz-6" value="" style="outlineConnect=0;dashed=0;verticalLabelPosition=bottom;verticalAlign=top;align=center;html=1;shape=mxgraph.aws3.ec2;fillColor=#F58534;gradientColor=none;" vertex="1" parent="1">
          <mxGeometry x="392" y="158.5" width="76.5" height="93" as="geometry" />
        </mxCell>
        <mxCell id="7jXJJxEpb_EreKCAJciz-7" value="" style="outlineConnect=0;dashed=0;verticalLabelPosition=bottom;verticalAlign=top;align=center;html=1;shape=mxgraph.aws3.ec2;fillColor=#F58534;gradientColor=none;" vertex="1" parent="1">
          <mxGeometry x="605" y="164" width="76.5" height="93" as="geometry" />
        </mxCell>
        <mxCell id="7jXJJxEpb_EreKCAJciz-10" value="" style="dashed=0;html=1;shape=mxgraph.aws3.permissions;fillColor=#D9A741;gradientColor=none;dashed=0;" vertex="1" parent="1">
          <mxGeometry x="350" y="120.5" width="30" height="35" as="geometry" />
        </mxCell>
        <mxCell id="7jXJJxEpb_EreKCAJciz-12" value="" style="dashed=0;html=1;shape=mxgraph.aws3.permissions;fillColor=#D9A741;gradientColor=none;dashed=0;" vertex="1" parent="1">
          <mxGeometry x="554" y="123.5" width="30" height="35" as="geometry" />
        </mxCell>
        <mxCell id="7jXJJxEpb_EreKCAJciz-21" value="" style="edgeStyle=orthogonalEdgeStyle;rounded=0;orthogonalLoop=1;jettySize=auto;html=1;" edge="1" parent="1" source="7jXJJxEpb_EreKCAJciz-15">
          <mxGeometry relative="1" as="geometry">
            <mxPoint x="278" y="45.5" as="targetPoint" />
          </mxGeometry>
        </mxCell>
        <mxCell id="7jXJJxEpb_EreKCAJciz-15" value="" style="outlineConnect=0;dashed=0;verticalLabelPosition=bottom;verticalAlign=top;align=center;html=1;shape=mxgraph.aws3.internet_gateway;fillColor=#F58534;gradientColor=none;" vertex="1" parent="1">
          <mxGeometry x="160" y="19" width="52" height="53" as="geometry" />
        </mxCell>
        <mxCell id="7jXJJxEpb_EreKCAJciz-17" value="" style="outlineConnect=0;dashed=0;verticalLabelPosition=bottom;verticalAlign=top;align=center;html=1;shape=mxgraph.aws3.route_table;fillColor=#F58536;gradientColor=none;" vertex="1" parent="1">
          <mxGeometry x="408.5" y="70" width="39" height="25.5" as="geometry" />
        </mxCell>
        <mxCell id="7jXJJxEpb_EreKCAJciz-22" value="" style="edgeStyle=none;orthogonalLoop=1;jettySize=auto;html=1;rounded=0;strokeColor=#000000;entryX=0.5;entryY=0;entryDx=0;entryDy=0;entryPerimeter=0;" edge="1" parent="1" target="7jXJJxEpb_EreKCAJciz-17">
          <mxGeometry width="80" relative="1" as="geometry">
            <mxPoint x="212" y="54" as="sourcePoint" />
            <mxPoint x="292" y="54" as="targetPoint" />
            <Array as="points">
              <mxPoint x="426" y="51" />
            </Array>
          </mxGeometry>
        </mxCell>
        <mxCell id="7jXJJxEpb_EreKCAJciz-24" value="" style="edgeStyle=none;orthogonalLoop=1;jettySize=auto;html=1;rounded=0;strokeColor=#000000;exitX=0;exitY=0.5;exitDx=0;exitDy=0;exitPerimeter=0;entryX=0.56;entryY=-0.004;entryDx=0;entryDy=0;entryPerimeter=0;" edge="1" parent="1" source="7jXJJxEpb_EreKCAJciz-17" target="7jXJJxEpb_EreKCAJciz-2">
          <mxGeometry width="80" relative="1" as="geometry">
            <mxPoint x="225" y="102" as="sourcePoint" />
            <mxPoint x="305" y="102" as="targetPoint" />
            <Array as="points">
              <mxPoint x="211" y="83" />
            </Array>
          </mxGeometry>
        </mxCell>
        <mxCell id="7jXJJxEpb_EreKCAJciz-26" value="" style="edgeStyle=none;orthogonalLoop=1;jettySize=auto;html=1;rounded=0;strokeColor=#000000;exitX=1;exitY=0.5;exitDx=0;exitDy=0;exitPerimeter=0;entryX=0.56;entryY=-0.004;entryDx=0;entryDy=0;entryPerimeter=0;" edge="1" parent="1" source="7jXJJxEpb_EreKCAJciz-17">
          <mxGeometry width="80" relative="1" as="geometry">
            <mxPoint x="888" y="90.5" as="sourcePoint" />
            <mxPoint x="635" y="140.5" as="targetPoint" />
            <Array as="points">
              <mxPoint x="632" y="85" />
            </Array>
          </mxGeometry>
        </mxCell>
        <mxCell id="7jXJJxEpb_EreKCAJciz-27" value="" style="edgeStyle=none;orthogonalLoop=1;jettySize=auto;html=1;rounded=0;strokeColor=#000000;entryX=0.5;entryY=0;entryDx=0;entryDy=0;" edge="1" parent="1" target="7jXJJxEpb_EreKCAJciz-11">
          <mxGeometry width="80" relative="1" as="geometry">
            <mxPoint x="428" y="97" as="sourcePoint" />
            <mxPoint x="505" y="95.5" as="targetPoint" />
            <Array as="points" />
          </mxGeometry>
        </mxCell>
        <mxCell id="7jXJJxEpb_EreKCAJciz-28" value="" style="shape=image;verticalLabelPosition=bottom;labelBackgroundColor=default;verticalAlign=top;aspect=fixed;imageAspect=0;image=data:image/png,iVBORw0KGgoAAAANSUhEUgAAAOEAAADhCAMAAAAJbSJIAAABa1BMVEX////u7u7t7e0AAADx17f5+fkBAAH09PT39/fv7+/+/v7y8vLTODMzUWJLdpBqaGeopqStrKxycXAAFhizsrImIiPCwsIxTl+GuM3c3NzX1tUhHh/WODPrOzbgOjU0VGY9OzpfX13/7cz/QTxQTU1AZXq+u7ccGhv/787zPDeCgH785cUAFBbjOjWYlpX3374XHyBaWVifnZvx38QUExT//+8AICEsKSc7OjpGb4eOi4dHVWDOzcv/89vy7uR6eHaOgnPUzL29NDA0Mi8lGRrKvadgJCPCNTEAKyyhloaoLiqIh4eJLSsjLTRLHx4nOURIXm03P0annIhGQDby59W1rZ81Lifcyq9MVlwQExptYFGThnXLuaJ1b2fe2c+4ool1JyVcVktxNTUwHR6iLy1FMDAdAADUwaj//NuKOjlAHh5TIB/MxblUTkhtJSQ6Myw0DA91kZ1Ra3V4o7Zgh5tqmrKOprAYKDKGODfg/dvQAAAe7UlEQVR4nO2dj1/btrbAHQv/iE2XkF/UdhKc4MaQhPxUCaWGlAbKWkgZHb2sW9mlK9vd7da9t7vt9f35T5Il2/lF+ZG27h5qy6cRzom+PtLROUeywnGsSBFaVK8qSmt4mdUoPKsSWJXgVYVSVISbnqwbwhvCG8IbwhvCUDXrAxHytARksaqALFYUXxYrIRUlsSILrHhVXo08WnXe+0IliouMKNjXuXdHZFrFR707qbIqyasa7SthEDWGUJgsKxKQxd54XrPCIOqG8IbwhvDTi/p/SXiOXY5Mz8R/NFGcyoqguDOkIoxWyV4VrREUidVIXlUoRQk+6hj/KDLiH3FXdbVCICpU7vJNbHFD+CkI0eCJqpIsy8q1RYWUEBdedzIZh7+uqFASyk481gFe6XUzemDu+uwJBb5riQDaBoQiECGEtg2BXWjxgsv4KbMY05jE1DkLADudtgEwE4+fPVuPmUiL0IAA7PFK9CPMh1FWBIUWIUJrIqxGkb2rOFrDqaxGYhdxkWFRqDXlDqLBfF/HNzc3l1DZ3Dza2nuVBrYBYAnd/4uJunKrlKv7peyi85zJeA/rC6aB+PxoY6lSqRwtHRUrS0t3N7THBmbcu7CoK7fqA8YWQgYZl2ZccqC4LiwttYtHGxsb7QotG3dLTWCAJv/5Rk9aE4CCI0tdYBH9bRQr7Zn2jF8qRyUAMeLnSSjUALAcjq8ZoLaJ+dr1mZFSaZsQmJL3gZ8ToYYMZkriWzGQzmwUN9pHo3gMUSxE1fNEhZJQ0Tqg43B6omB0HDT2NtrjATEitEGMTXGfCyEv8KiHSnK8EDPTmxtHleIkPlTqxy8MUKaIH4bQmxkDdnlk/pRZTTBfQIs0LCoabQIrwsebsRjSYLF9HuDMTDuFLGpGGC9qGq3i5KkXbg6s8UKpUI6BnY3K0fmAxQ2uJto9Xph+O1hzvDK9BSMTZLSake7AxN3iUYV1x/Y4c7px9HI9btqgNkHUNJexpud56xAW3BhibomNwXrxbqZW2xpGrG8cossM5NSNFxXK2EJoYW/MKKei0U5zs1inJI6FkZ8PIR4lgGUB0UiD1OdDuA7SEKxrsua0euJmkQJmIHhh/EMsDw3KyuPjdvv4RLTF7mdDqAFDXNM5Z6/wTawHNl2dLTlo+tjZqmwdD4/DSh334GMb9vjPhbArQpPny9/EYrGuCTZdDt4CDyr1+swYx83lPH4BtM+EkLdtUYvsFWK49AzXWav8Cr5dmgBHEU9A6yMQ8peSpYzIws1ygFhWui5gudN0p4piAk5029xSPwbNCYTXbVWE82JhiYXHqhcxezG07F3lRdp+8M0uQrKQnQFOCQN2Y7GE+B0l7K5XziecWQJr3KCoabUqeq5/5N02zz/ydT7Wa+Oa0NYSMbckwDM68HwN1l+OjsX648rMUt/moxf02i7Zqql63jxnQVNr4h6KAJsvRmb4meKJNyW2GXcxtjNTLIiaem4WIxyxBYqaYNNxR2Gsaxkjo6+yET+hHbbe3aHewN29bqXYBRkp/ITIzkC7kCoQFcbKljnsdBePikeAzomVkxP315Wl78Hx0mOQkcNPmLFh2rDiRIfI0lhvhwk3joobD07ciaPyGBAV1zeKm+bJz/8EMVkKO6EG7GTDNlNIg10E2D2IDRPWixsbW8A1rPU6KGPW+tHSz8/F45cAJBR/vTaUhLphJ8+eJDvxtJE2zEQiZhVGCJFjs/SAmth2QUQjsf5yvfu2B5o7IA26fqvCSMh3YHV/cXfVFiHOAtvW6DisP3jw/NdfT8C3rhJ3wNoSMqI45uhvvQQNA8Q/COGUZh7JhMnT5eUeipxe1ebWTeSe7hlbg4RtEdOIbJpEcMiwthPWyeMiwv3BMEBpyq1y781FdkTI5+yIIFXcHmj8srz4JJkGraOfNza+tyDsGkPhYOWl2bGNzjM2iRwb4Hml3m4jn3xmBzx5UrUNTb7EPo33tooUH5V5gPzlPUCeawHjdW5x8bcGSN3djLe+v+tAcW9t2FmrFNtbW3WvsvgvAI7pqx1wtnyWhD2ZrLiN+qVXaBUtAUJWdXkvXkZmtJpdXM59Ca27mz00DP951xJNaI1xuINqRfM8PCYVlX+Cs2zuxwbY44YIr96qKRLyQgEm9xeXl3NJpMJaCycsvkc+OBhHOFCW3tJrEOFsNpt9bQAHty1shFwcDUIEuJJdFZ2legW22p0H7W+/e35+UIgVuvQ1OMSIxTLYzc7mHyZtoERDR6jyHTs5izQ4m09CRLjV3yo+7rfrlUkhfRCx3gNmG3vfP+Wzs7O50waIK3zYCIU9cfUMDcLZ2fwqyCBC62imffieDsrw6zsiQBHVUv/1yuws6qi23eHVkBHi5FMV9VGkgpVHoFWcaVsTVpoCpe1lio9fvDjGEfCP6A4hCftJUOY+cBZjILs8WZZnl7kySCIVYhXkz5LpuzPF5nsJ20Wmw6Xn4NviTL0NfiCEs9ltw+bV82eLi7QqQHjJpxdGLkIxof0mt5zL4uY9SYJfcVLtPaV+4pBr6sXjB0BEnbT+GDzME8LcWRKsK1d+PGPM+669ysOtExW67Vt5M3YOHFGhtV6s1yuV709s5HOj/lp5IO5miQRkrey0PNW1J6bMK/q4UQ7a29iOuoRIid+ROaLeHsn++qVy0nm28/yZhfPESOX1f7XXDAo4m9tvgLkwxRZCBjTQZM/al39qgO/alXrxGdybvKxWf0lccPPbLeSTtnfMnWPxdIVKyO4asBAmQqUrVh8yFSLC2aQBet89PgEgMzaD+Ly9hMiLOy9f7hy3K5Xi0vMC6P78GPw7z0TkHjXSWvR6rZoiYRTN9j+yUegippO2CCCIb4wQ4rz+92At8XIH0bXbW/Xjl+svAIi1i6Y464lAjg2Z9UNCiDvp6aKnQtzA7P520rCtzeIIIdJeu7LVQf3TNnqdjl1aR/8D6Taa9ZPLAQlJaHFhIeS5rpjMLq7MBstK/iEyqWMIj+ovD9v19rM1xAhtG7Swd76H3LsTcT9wk1aQ6yapISGMCmvwac6zM6wsP2qIR2wB/9gzqpWZitlFP9rH6yev3ppr8eevHuBo8RgkdwMi8mcNUJKnR3itfIGq2aiTLg8BIt+rAbY26Oro8xM/xKi3/4Fmwhk0FdbbR208JaKZv9IFT/OBd2cfojBRuEarhuZDr1xpJ2cJT/crw4Szu1XQ3Tii6ZjeY9/JqW+B/vOtItu+R6r+9SL5MEg4u/LajgnXaRU3xZ0Kc6iDLeZHCFd+aZibVIkouA3EUcXHAKRffXuyjsqDAq4vfl09HbxHude2GblOq7gpxhZdmBztpNjiV8GvS3SbQvvt1wFPbgkhiqK7V+NBkeS+jd3BgZz7oQG1kBAKFiIc7aQ4jhKbd2mEhHpmN2BX6/X1V6+st69O1nHOBs0UyHEffHMOhVB6WAh78MsxnRRbiypg3XSm+BwEs27IvlTaKH4ifXfJgsaPy8NvXvUyp5+aUAKNR4vDcwUpy2+QraHddKYyiBh0Ak5EI518lBuQkd9N0k1S4SXM5s4aaagvMecb2Zdycczqb/sBMAw7nTxdGRSSFMshIeTRZDFqaLK52f1kOg0LP3t+DbIvhaMhNdYrO30EeO8+QtzODyCuirEPQTg687x3j9xYwnz+DDYMGxqgtbHhzRLPwItnwa17KIB8i/zTtS+++GLBTjfe7K6MJ7xCq1xCbz68zvkMig5WnwybidzDN0kDbi/cEQ2wvrnBcmo/b70F1uOlJaLIylIFRU0wnTYO5zEiTDcaQcRV2OTCcGoEL48Srsz+hvj691G7b9lpAFpOm9jOZ5aVMG0ACih02nn5+BAQvrQNYZ9oEdmbJ7kBQv6KrXKrpuR5yxrqpQOhU34fNmzjq3tf4HJrGxGA/3p1ctI6AdVq1UZMkM33nV4aDb83bxrwK6JFw6g+8eYd3Ev5q7aKlCkRSoOEqIM2kALnXT5UDm1QcmrdJtKlsX/2y2qykU7bhR54cfhd/PikWt3PLy7uJ/u30BvuGbaRnGXmJhkWQjUKGr/5GYz8D1XUQe9QvHt3Fhb6sOegDiY44LfFxeXl3Ud2A1qlzfbSUtsGb2YXl3O5fLV/69YCurxnJP+94hGWlVAQRlSx8YiOw+zyk+0GUiDjW5ifRy2f3waxlMLtAUSzvLy4mD1NVsGrBw8eNJL7y8Tfy78x5m/NI8Q7NiPEeYxaSAhlE37pEiI/JJm2mQIR3y23LBw2kHkxq26yKruymHu0CsWn/508XVwk/t7KaRVfO3/nnp2kyZqVJ8hrE8JBKDThKml6/knSSMNDl2/B4yPlwBDtpJesWl7MP/0tt/Jb9YcfHhId7lfdq+/bSerZ4BUoXb56q95LePHzGXhhT3TNAwoI0+KCO/wG8Fw9pj3CbP5sv7q/nN9FZiaXDxIe2K9ph8/9aEOaT7xKq8hF0zo1QkERMLHx+V8M4w7huzUCiIdj1dNhfnb/zZvl3H4179b4hMkzes3KG9uKhOXUCEdM7pPR9KhhY8JxfHiUgZznseSXn1T3T5Hul3Mr2Ww2t//OvcSw2aST3Ybda7WKm2IWQ+g0Hq245s/AzslYPtT8Vd8nyy6fAlBNmOD16dnDhw93X/cXyCX2IzrvZM9WyZ7oq7eKm+YKqQUb7n1Ppn9ChKODkFqbU+bcZfOn1fW4FuXLQEyCavIneEgID6tn9CbgTJ0THsIWWCVZlpXTBsTz9iRClqnIzz6tWjKv84Lq7IHf//rrP2KfDNV+NUs9mpVt+ghNOAg10DjN0emif++LexO66QI1SLmH1Xd9UI7wakFT4j/dRuVPMY2V+O4pVSGaWWHsmq2aJqFq2a9zpPNtp7eRf3lnAqHdW57NLc8+Al//8QcQHSUFUlyLEN5+fYCHYXWfqfA06T4jFBJCrgZWiZXP/dKwDycPxHmw+3D/yyr4D0LqgrcSh2xc7QXRIcR34KD6hBE+tddCtRcDdVNiBPMPV+3+yEA8OFighGkUWdjin0Rrh24qrbyGX7w7xITGa5qNyj5Miolrt2qqp0aY0F1XQS50494Q4UJ/foEpMd3pb2PA/7l9+3fQVPg5LvYNevmfxgLppGyuWH5tA126dqumeGqEUGJK3E9iazqow/T8Fwv+i/u3abGAkwKZGAL+C867lpQuXWRnk7AQrlMjIrJlb9Mp0TgYQ8hG5sIB+ANr8C+ixJhQEkxE+A3pxvON156daWA7M9rtPuGpEcIcnTCWjZGBuNA/9AgPt7f/ZDq83cfPqvV+R6ju7xp0cSa7uwpNLmT7vGW5Zyd3UR9bOUtu3xsmvO9b14bxUx8z/nUbK3FdUPp/3e4fkss6bo4GeamPiArDRShxKToSZ214Z3C6WHgXILzfh4b4ztXjH//o8Nrh7a/eUZ8UR5n5XHb3rApjSvgIkXNafbKCrSmKgQe8mgEdIpK+bf/Uj/2BTSiYy9z/C9DAqYpi4uyTX7ZtO203tRASOsCw81kUQkFkahYmEyJrY0ADvvjq99u3gbl+58B1um+lt/O7p/hxFLKRKK2FjxBvEkZB1Mr/VvvnE+JguI+Tpj/9aUKxg6bCBVTW7Nc/Vhuo1oxzcg2gyTKEp0asweS/V/JnSTTne4QHh4PjELG4ffUAZ4YN9GP+EJe+QTLFdjNDZvUWQHZ2Oq2il02jCDq08cJDEgX6nu89D/v3+2g+RGj37x+Q0u900h0MhP8ahmHbeHHNSEPQnPPOcbNAYppnWfio11rlQfbUqGZzye07X3xxyHR2iBTVxxpr2LYNRRAo0MaE6AeCAxD2MliQlopjbdSAGcJTI6JcGRivV96g6YJ5Nff7RFuUDDbLtVImk3HQv0yp1TWAAXsHyPAUHMciDzw5TRAnzeEByEynVaRMiRAhxoDdf2p7ftvCu3f9ft82CuVWSeNGSwbgFZk+DnZ1EFOEMqhRBQgmCFMEzGTxMt8U0cjqMcI790jpBXpJoEi6QwgPIDKcQtpSZUcTcCoQU5bFMGUxPFm8rJogbWx7vXT+zh3UZcE4/WFCHbqEPXRBuaPhGQeYb7t4l8kc8N8VIkKMGANpn/DW/Pz8wsJEQq1z/94dZIygjpEcZNQlWSDn9HEO9J9EDBNhhOekGISD8dOCnxccJNS0DknP2NiqZPwHD/FnaB1vs0noTo0ogRFC/7nQAUJdMynhHDY1cYFr9dC0b8Vljkfd3Se8bqume2oEUga8M5BuW9j2zeKgDnmLEBp45wwPagIXUXF6QhM4XV1D9yWcp0aojogIBwNEc5IOLRzdz2/jgFcxTngNFTyxR3md7wFdmlqrpnqmgqTDIcJbB70JhDwltIGiaXZTIHyIU9e1DACsK4YmtjiHMB1wDIOEWpNkaNIG4DWlZ8iak0nF4ylH09QCKIdmJ/swoQPhwiDhvDjWmMp6JEbi+44BdKdMXTsrUU5F1S6AmjS9Vk2VUNVso3E4QHhf9DP0A4TRhEF0bOAtNh3LskQzw6u8U7MAfRg4jIRROQ3T9vbBrUAULHpLgYOEankbR4x9A1opDX+2xeIOsRbCGJ8SRpQWBDgsOvRS3QsvYv6Tin4R9GgNHnZwjAhanBrFe3NKtUS32605EhdiwqigdQGwUVR7SAN6NF0EVtIDhHwKoO6JAN+q7qBTg0vuHyuLwfmyLjQfkldKyQL47O4D0lkXDsG4Rx8QYQk0uzVy2N7kYzRDdGpEYEeEwkmlHoAozGj0D5H37W1KDxZF4x2AGmKCkjBZVHhOjaBVAYBSEx9TjvMwtnui9TChrulA06JNkBLOFRWSUyNGmhUVBH3PxBstRRuO9UwpYRnsKeeLum6rPhAhj9NEEWeuXF63oDVuICIvFOgaMjeFz5OQvIySlIQDxoaImNDBP3p85HMljLiDRxXBOK+G13jgoB+i6EQ/Y0IsSoiBwhjCqM6DEq9HTJBSPnNCnFcaQyg7UZDidbWJwvmPRjjGLvOTZV3YxOtwXDZKcVSIAnneAt3zCa/bquufGjHufQNV3JqfdQkUne80E2nkuaWUC4u6Uqs+wInlQ6KUMoiNcU1RkC/isHBPuazX9pFPjXjvUfG84IBx3VTju9DuxvVLiLpaqz78twNG+d5AOpQURda0GjAvKSqkhLibNocAJd3R1MzfhTAi6cieWLWM7hk/nDrMrJsQ/E0Ioxz+8iMRwJ5ViOEwPlFomgY+MKL5NyHklfga+cogiL/SCog44iBPd3XVvwlhJCLIfKaWiFmW2UFlzbSsQqIc568i6tNnMSaIIhfJEs3do4BdCWRlPnAWwysf/qs1I3gB5bwp/OZbOq8i6uY7LKfarMGuNV4UGVafKSF2/IPp77GiiIGQ+M+RUI1mMqXUXKtcjll9MTNelKI4Bdvu6lzkPFFTJRyxWlcmlDPBTV9z40XhHSe4xJXzRE2TcLRcmVDSmj3gejPiRMKMe0UwO/ehnrcoIbdjsJgqlXXVSUwSZM3ELhv6Q7JvY0SR3+MLCueJmsapEVwZjBRduHguYUJ6AedOXR2lhHGiOE/JkHuPqEtkOMY+byHxrTL+PlSRfuBatxaXcALo/PMZxpiOQWdSKFDCOYkfFcVzkBE2R9fxp3tqBC8JSrRkA7fL4K+ZFAR6iqAvi73xEu6ykgC0l0pjRPFcDdAzJUrCCOHUYwvkzdbYHW1dN7YIENJeOo4wEpGb7ohInGvQphY9CXGmw7kpEro6nBtLyMtCzYS22RI+TnyICKkOp0nIxuEkUVFHVy8iKuyEE3rpR47x39NLpWg0wvPDzXKnoGAMOEQ41tLwI82akLbDX5AZeQ9hNPpeQnaqyPk6FPB8q6jBaFqVyR5YRQqkuBX67eLn6RB/fyW6LBoNhLTkw1DxcNDNwtGzEthE5s0WfhOEiIpmSf5ip0YocwEdBrYQcIoWL/TwgxNrsRSvuFsIOJ4kKPRMqdUq84rCSU7X7PR6ZktTPOmKb2nQZ0iCrrlF13WHl6P0hZOK1zK4DZIrEwlNtdaRGEF2ymudTseq8Rz+THZqhCRopRj+sDWz5vDoMxzhgqdGlDwd+o9lKFFOKwSfm6gpxGWSC7Zf6cic4+1wsufcrkJ6b4xZGlylBV2mGte1offKTTM2AzUpgdOb/qdyAa8tGgvI6XXJruOLZTHmxhByaoII6qoc/tZtXDQ8QgT3093rHW7PeyECd+WJDA6PkKwK8+UCuQg3OeFwtJ3kAtcv9WXid8QDn0B2vlHCOVwLjFpGL+2lyTUl7oKxRcnrpT6h1MTi0AdICvYy8f9FR0ADm9eIQ0JcEvJf6L3Ee9U9QtpLSXdQBPcuraXwjVa1OAQg6HnzuIb56l3cH0RPqC5TwhRpRE/HO+E5jXxA6qKEqVEdYlVh+cgwoPFINZLG29Kiqn89cmlrGc1JsDveHNGhGz3xgo73JfoPyPAd+g4vtigxHaLQq4VkrjOZBcUl5N1uQL/axI0ZBr5K8ZI6LLs3eV0hM0KNasQ90ynKsfsLLBSyqBLXZQJGdOhGT7JqoO6gBnIb5QEdoiI3mdAC+5pT9x6ntSgh3HNf7ilsUkIfsX51HWp03KRkMrnQgQqgu7sEh3fktaXgtWle1tgN18eNQwU/goKsgjoQ4w/pkEvQmq9pq3RIRWRUQthkAzfCu1Me727CuiIhm84ciRA67AI8EgOEOhUv2bSiNK6X4vtlRcga6mRCfwZlNU0mU8CEskV/X1YVdNuxqBZ599V6qeauqwAbfysTVSnpI3GPkLwkwBH8pL43oY6xNDwyfALxVAbyNIO91PeC2EUFekmKEAoWa6S5h14j+8dJtYm2dHg+HNEhnSCBweZmdkHZfQaR6dChCwoyu99zY+ZDHU+gc8pA6uE8HfqE7iUuIXtJhr+5XgoGuWw+nHhqxIBfSh7NiDHTjR+YhOgv02GXPO3h6bDkPvyBbzAVINCjHjyNkIQGzo1wwaMeBF+H9BmRgG2KuE+tMB1mOHxqhNKiL+nhy+mE5oo799QIbrxf6ulo4GFQUujuQ6ZDtmovWEyH8pBfWipRg2Hhai8+FHwd0k4WsE1uqzwdZohfqka8XAtrWZkb8ksHCflUeT0TJdt0Rjxvbo0K77gdiN0jr1ycMOY5J7UAYeTyhLyiDyDiS9d4aXJs4foYPXzJaPSECckfA4cFbPNuICDwe2mA0DVVA9ET7QTUARokZL3UJ2S91CNkvdTtWUrGBiwJ6f5AHkZ0kg51Ot+tRcfo0LckxA0bk9W6qA6R16PHPAdIuo4OMSIf8z1W9+KMMImwTG8YyXUN65D3LU2GGxtNX1SHWKLqabN8DR1GVVWOqAofL3QA8G1OV5lAKKfZjUVuWUCHOu0PzIchzxSOJ7zgOExJStwbirqXWbu0DrmymRFIEI5CRD+c6UgTxqHkXYLmqYiyx5pA+4PkeWGWMkDIX5pwTuKZP4baw0tXJlwHphBl6YK5HmsxioB9Qm9mpISkl2oqjzul+zLB9gTIBda1nMCeAEGDqcv20pTESzxkliHGluaDvZTWBHqpO38P9FLs/KOpnyVEJNq+jjTp1AgTMBMuywLfo690gf5acZgSTUlh71G0NIA8vsTTYYb+0tchq/B8GlTBIiN8S+jvAz6NPPSOFLuk4HUU/ApN+B2etU+mSWw0tCecGiHUXEfDPXhyjsYpZc5f5UnQOtD0loKQ/cW2i3ptroaDXhvzS4l75vs0uFDLhYwzcx5H/FLuPX5pCjtrXkfEd4hawrFZDF4lAw10iTCVxp5mVPVX6mSTRaRr7iqm5kaceHZR2dIRMkRkDEUFptQW2dgbjXqRAImAVc32HFsqf90f+rSj0+jIPwyT6RCZYJm4ysh/EFxXn0cRqUgdpfGxBf7CVFQINXGrSDAr84G1SK7pdS3kGfTIRISBVEnVuqy9MM7LUUngvUQPaGk4x4ezG7QCP5DHe5kgEbx1eNSoOW/xycqgViiS1vLeEdfQLRXUlmcNW7qM11RJS0puVk0nfbCjTiRENgkjrpXjtYLbX0GZJ/GNTyiUmTdCPZOOhr9WU2iZRsBR7bSUSKwXqLALaqoXvCLdlZDW/Vwa6O0114K+bq/EZcxOUCaaowpm8BJLxqvG5F3NWsZJJUi+zyIDaFJ8GMUnjPgl4biuCz+QTSwH2vVNSSGzGR7CwbLORQYaA3pSavAKS3K3D3slNvh71DVKgxUodE8P1kiYUHGC67kWNeSTI2BZ0PcKlmlazURJFti3LgVXzFVF0vcSBVQScZxhJ7Lc1Cwr2F2NDldRR9ZbpMVfNyoEqgT3jd5VAjdQo+JMuiwNXISGdwl7kFJmL9bE2wFbXoR0XowvK9gdIvPJ+H3/fHRgYwyVhZh8Ue5x5sF5l6TjMPjg4gGp8xff6Z0ZEEXrAosHUVoXGDsCihbx3R5uVeR9z1tExhG66y+XfUhigqjI+7Z1XEwUKhNaNd1TI8IoarqnRoRS1EfZI/xJRd0Q3hDeEH56UTeEfwPCcE5i05wP2ZaFqZ0aETZRPuoUT40Ik6ib5y1uCG8IP72oG8K/F+EYuzw2T+NWXdbEfypRH+HUiE8t6sOfGvGpRf0/8LxvCG8Ibwg/uagbwhvC8BP+H7K8/rfpOckFAAAAAElFTkSuQmCC;" vertex="1" parent="1">
          <mxGeometry x="197.5" y="194" width="36" height="36" as="geometry" />
        </mxCell>
        <mxCell id="7jXJJxEpb_EreKCAJciz-29" value="" style="shape=image;verticalLabelPosition=bottom;labelBackgroundColor=default;verticalAlign=top;aspect=fixed;imageAspect=0;image=data:image/png,iVBORw0KGgoAAAANSUhEUgAAAIAAAABVCAYAAACBzexXAAAEDWlDQ1BJQ0MgUHJvZmlsZQAAOI2NVV1oHFUUPrtzZyMkzlNsNIV0qD8NJQ2TVjShtLp/3d02bpZJNtoi6GT27s6Yyc44M7v9oU9FUHwx6psUxL+3gCAo9Q/bPrQvlQol2tQgKD60+INQ6Ium65k7M5lpurHeZe58853vnnvuuWfvBei5qliWkRQBFpquLRcy4nOHj4g9K5CEh6AXBqFXUR0rXalMAjZPC3e1W99Dwntf2dXd/p+tt0YdFSBxH2Kz5qgLiI8B8KdVy3YBevqRHz/qWh72Yui3MUDEL3q44WPXw3M+fo1pZuQs4tOIBVVTaoiXEI/MxfhGDPsxsNZfoE1q66ro5aJim3XdoLFw72H+n23BaIXzbcOnz5mfPoTvYVz7KzUl5+FRxEuqkp9G/Ajia219thzg25abkRE/BpDc3pqvphHvRFys2weqvp+krbWKIX7nhDbzLOItiM8358pTwdirqpPFnMF2xLc1WvLyOwTAibpbmvHHcvttU57y5+XqNZrLe3lE/Pq8eUj2fXKfOe3pfOjzhJYtB/yll5SDFcSDiH+hRkH25+L+sdxKEAMZahrlSX8ukqMOWy/jXW2m6M9LDBc31B9LFuv6gVKg/0Szi3KAr1kGq1GMjU/aLbnq6/lRxc4XfJ98hTargX++DbMJBSiYMIe9Ck1YAxFkKEAG3xbYaKmDDgYyFK0UGYpfoWYXG+fAPPI6tJnNwb7ClP7IyF+D+bjOtCpkhz6CFrIa/I6sFtNl8auFXGMTP34sNwI/JhkgEtmDz14ySfaRcTIBInmKPE32kxyyE2Tv+thKbEVePDfW/byMM1Kmm0XdObS7oGD/MypMXFPXrCwOtoYjyyn7BV29/MZfsVzpLDdRtuIZnbpXzvlf+ev8MvYr/Gqk4H/kV/G3csdazLuyTMPsbFhzd1UabQbjFvDRmcWJxR3zcfHkVw9GfpbJmeev9F08WW8uDkaslwX6avlWGU6NRKz0g/SHtCy9J30o/ca9zX3Kfc19zn3BXQKRO8ud477hLnAfc1/G9mrzGlrfexZ5GLdn6ZZrrEohI2wVHhZywjbhUWEy8icMCGNCUdiBlq3r+xafL549HQ5jH+an+1y+LlYBifuxAvRN/lVVVOlwlCkdVm9NOL5BE4wkQ2SMlDZU97hX86EilU/lUmkQUztTE6mx1EEPh7OmdqBtAvv8HdWpbrJS6tJj3n0CWdM6busNzRV3S9KTYhqvNiqWmuroiKgYhshMjmhTh9ptWhsF7970j/SbMrsPE1suR5z7DMC+P/Hs+y7ijrQAlhyAgccjbhjPygfeBTjzhNqy28EdkUh8C+DU9+z2v/oyeH791OncxHOs5y2AtTc7nb/f73TWPkD/qwBnjX8BoJ98VVBg/m8AAAAJcEhZcwAACxMAAAsTAQCanBgAAAHVaVRYdFhNTDpjb20uYWRvYmUueG1wAAAAAAA8eDp4bXBtZXRhIHhtbG5zOng9ImFkb2JlOm5zOm1ldGEvIiB4OnhtcHRrPSJYTVAgQ29yZSA1LjQuMCI+CiAgIDxyZGY6UkRGIHhtbG5zOnJkZj0iaHR0cDovL3d3dy53My5vcmcvMTk5OS8wMi8yMi1yZGYtc3ludGF4LW5zIyI+CiAgICAgIDxyZGY6RGVzY3JpcHRpb24gcmRmOmFib3V0PSIiCiAgICAgICAgICAgIHhtbG5zOnRpZmY9Imh0dHA6Ly9ucy5hZG9iZS5jb20vdGlmZi8xLjAvIj4KICAgICAgICAgPHRpZmY6Q29tcHJlc3Npb24+MTwvdGlmZjpDb21wcmVzc2lvbj4KICAgICAgICAgPHRpZmY6T3JpZW50YXRpb24+MTwvdGlmZjpPcmllbnRhdGlvbj4KICAgICAgICAgPHRpZmY6UGhvdG9tZXRyaWNJbnRlcnByZXRhdGlvbj4yPC90aWZmOlBob3RvbWV0cmljSW50ZXJwcmV0YXRpb24+CiAgICAgIDwvcmRmOkRlc2NyaXB0aW9uPgogICA8L3JkZjpSREY+CjwveDp4bXBtZXRhPgoC2IAFAAAsvUlEQVR4Ae19B3hd1ZXuf4uumlUs2bIsy70XDAbb4EYvoTgQCCWUySOkejJJXjKTAR7hC5B8kzCZ5IVkkpcyyTDkvRRwGi1AmNCNAVfcLdmybMmyZKv3297/r3PO1ZUsGUmWBDHZ0r1nn312XW2vvfba5/riDPhbSEBAwPAl7k79SPBUGmIsFkN9UxNE0z5Do4dOj8aFWi+ukXv3PpaJIT0tDRnp6acSSN5xLKcEARjCfT40NTfjC3fegwYSQUpKCDEjBAcGHto9lCvVi6cEAjhYVYXP3fE/cNO110CE5Pf7nYKn+PcpQQAejqLRGHbs2Yt9VTXIjncgGgk7j0gcFjTbWVzk4KbFohiVOwa73nodf3fdNU6+99H3KUUAPiI3OzMThTltCKz+MqJZY0AqSODaIkYExLCJBH6lpGHU9pcAEoCkxvstnHJyLhqNIky8dhTPQYTI78wrRKSzHeFwJ8LZYxAJMx4MIRLhPRHemTMWkaJZhnejifcZBZxSEsDBHdHI+dvX1gzfkTIgEIRfV0qHWCAF/qr9iGfnw9fSgHhmDpU/8gCngfdrOAUJgKgUK0uJS0k1AkAwFXHN/SQGSwumAJQC4DUeZJrpBe9PEjg1CcDDpeZ7C96VN4k0N570yMn7/vo+5XSA9xf6Tn60fyOAk4fhX3UNfyOAv2r0nXznR0wHGM4tB88SeFwbnnKnq8V1Fc2795YuIDqKwPtRHRgRAhBgZaQZruDVHUwJErVuOzTnorPNMQR1tFn7ca790dEKpGXwyme0A/g8a+FwdW6A9YqIPYL2xjXAKgaUfdgJwJDPLtU3NqKtrd1s7APjNK+GrnEJxV4dFifQAlzO1dbVIcq4PxaxNX70tPMQT01HLCvPJEA8PQsxGobiXB76Ih1cFqbw2WjgWIVVPnwk2tX3E8V6In4k9iSGnQBs2UXu/89f/D/89FePYUpRIcKdYePTOCHuIJBg8eIuhHzEsK3dJTm0dNPHMvcAoZumbFFyfQM3hFKCAUR2vwlf3nj4wh2Ia/1vdVAqyD5gdVFWMH+8JgR/+XanUqW/S8FDfoSWzN898TSWLDodUyZNtI0pSYLhkgbDTgACqXCknbrtL29DfGUcLZGopTmw9nIkQZ6IEPJ9BEbA4sSZIZEIFKYTgXFu4zrzOjmftaYF+O0LIvjk9xGPksttzu+B2ESTKs++5IwDxkxz6krUPXKR5N49+rs/4Obr1+DcD67Cv957F5aedSbptWtaGOpeDTsBeNwWlPUtsxP+pVcgPGE2/OJMIVOfBOcxTuGueTxKhKfTbJv15P9Gx63fQLR4FsU25/BEINgEOXG05nvWEUtNQ3T7OgT+9EPUXftlRGjq9cnM69UvYjCC6Wozys2gol2vAS/9hf3h83chxNl/bT+/8vp63Hz3/Vi8ajYqykpw8e1/j1/929dwxSUXcQjDQwTDP2KXY43KW+rQmT0WoB0+1lwPf+0RxCIR+BqOAo3HEGtv5rUWESLCz7SO3ALEmvYjMnoc4tXliPoDiCpfUx1izBerr2ZaELGjFYjVViIeDiNeOIXKXxOio0Yjhc99rCultgpBxgMEdEpdFfxt9BfQPfcLggJsToGD9m7SZWQoQYgV8usbGvDAt7+HKf5WtJ9+FTJW3ch4A678+Bfw6B8e5zjEHKLlZHlx8n0cfgmQ6KPbcSpoKURgnLtywY52s8cHG2oQI6JiaZkIUEv3UUlLYVpnfhGfZxGhVB5rDpHDM+CrPUypHnC4mlIkljYKfhKA9nR8oQwyODmeU4DKpNTX2HavkB0jkKX8BUQULBdsbUY0g0ohJY28gRQcECc6PCIRIVTIfeb5F/Dss3/GWeddhPqlH6LymoF0rlDOePMx3PDFe/BcdjYuvuC8hE4wVJ0bfglwXE/pfiWg60PNPU5kxqmNO2mKK43I4tWZHtw5Xnv19NyR5m75bSOHaSIGPdPmjsoYGklsBKpt9KgutWP1uvUrnpTmIX5oeeu4gR+X4HF/a1sbHifyC3ODaD/jSsQzcjkKP9rOvx2RZTdjQY4Pqz/3ZWzYvMWkhVYHQxXeBQLwuk5wG8T1pXn/HThQos/yq7ziTjndWTz53hKV3uPDWw/ZzjOnXS/7SF89cV6yrwz/lxKgcMbp6Jh0GnySSJRkPhJ766pb4V/yIRR21uLOrz+IIzVHh5QI3kUCGAZwa13ZM/SS1DPLu3bvzutbd+wEpMfMOAfxrHzHP4GSiwoSZ7MQWkgEeYsuxp9fegE/+NnDRrtD5bN4ahGAgaYHOj2p8R4kBK9LZQfKaSmrg3/sFNNTbKWiYWhVotVS5mg0Lb8FZ86chvt/9ghef3ODDXIopoJ3kQC84XvXHogb6K24qbeqektLrluzSfL9CMU95a+DK5eKw1VIL8y3Zetxg6CO46NCG50wB+El1yGv6RAeeXQt3d2iNhV408hguz0oAlCj/f04czW71xuUE8jxIt5Vw2E8uUw3BPOZ3bv5XVHqAC+pkJdu1+S6Vb1Xh9pyg+kRbHYA4xssArxeNjQ24WBlJQrkwziKrmqm4PXoK7tHlRZt887HxDmL8cgTf8LbmjYY3C5bfDBfgyIAzzTZn6s3V3lXDU0bMPaho6ZPXrsy8DBOj00nXUCgrd4Bg74JLm9jx/LxGUWjr5OWPi37yCESlSrvEIEDMOUxZUp53XhXO2xb+dm+t8b2+hjgaqM/Y/PyeMgcEAJczIUpARq4T5JCu0UsPZtD7UXDFwiiYcRyx8O/4GI079yE51942W3OYUZNB719jJhP0DGtmwYc2trlZUtkeRx2ghrUgTSeuGnvcKx4tL6jefoZJtb8HGyMljjfmGLDW5xGHVnu4qE0xGkDSKs7woHTOMT1e3jxZVzy8fmYCazBIQ0DFm0HMfr1i0Zio3KRspfzI9uMpmaiZfZSW/51ajNIPMR6fTQuaUnYIcKheI3QjpBbd9hG0NbeQW/hCFpa2yhe3TbeaWy0PoZCtHIOMgg+sSiJMUR7B/vSKwFovCIMLl21Shg/ew42bduGxqZmZGexDMM74cIIgW15ROt118cH/SZgZVUFP/zpz/DA93+EeZOLEW7ntqoIIbkWwc7uSZ18JjHT1N6JDhp+whPnITxuKjmfVjsqOVry2NV6xPy82iYNtd8gd+nSdq9D9MzLERs/zdnKtbW+ZXa+DJGiY5YkQv1l2+Dbux7t82k0kSmYXC5bg6Ez0ZbaocFZ96wvrXwnvYVLkZ6RicxU7hCyKqNtG4PbllXgNKPKgiSmvZVH8PC3v4ELzl1p3OdJELfECS/iVuWvPFKNWz75GRyso1Xy1n9BJG+icbvTgaQqhCZJpuZajPrVPdi8bQv2vPgsZk6fhuaWFhyqrEIdrYnhsCQaocHsozIzMKl4AsbkccczKahtjxAGJQE6uJt3eEs58vPz0RxII+uROqWxJmhJkGMv1BOe1pFhJ5U7dKlUXEJH9tE0622/kiuJBI96XfSzHqYRaRLX8YwcYOcrzidpEN2i3ojdRF8oE2n7NxNLKc5egPrGYLRucdav/pEMrKeaSrht3BDMQE1MRKlUdwwqqPo1RgsqR+A2cO4uqzBlzBIG+qU6GdJSU5E/ejT27t+H7JZ6bkpNJsyS2vbqte6yv6mjaE4vwMyC0Xj4148hTIlVUlKK/QcP4VBVBWpoIjfJGghh+rgJmDV1KiZOLMa82bOxbMlZmDtrJrJGZVqtIoRBEYBfFjlUwTd3GVpnn8ONHYp3AU1r18SVABPQZKunOI20tSD1kTvReeNXEZ6zBD45ZCiIo+30Dkco5IijmSauDZbvQvqPP4nGj3wDzQWTEGA+M9sawlVYbbIvWi8zGiVX5pRuRuYL/4X2z/wAcc6rlkf1K3htqZ+GUBJgOonltT8Cr/4GjVd/wcZghhjV6xE0CdLace9jbD/3jSeA7W+zyw5xOQ30/9tBPzA6NweTi4ux9uH/QH4j9z8IA+/ZcbUZbHm+YVQe0gNx/PTh/0Qb91dyRmUhY9xkFMxZikIuGWUp9XW2ItJQhR2le/DWm6/gx20k8vRcXEdz8s3XXo3LLroQmRnp/ScA0WTPEKXSEjxWaR2WjT3CkzdBKmSRzGz4Wxr5qUOkYApC3PgJF00nR7fS0DEawcpSoL3FiCA+thg+btAI+fF0zmdMj4+dBD/Ff0xHuzprbO7OPLgL0dGFCDRy34DI8VFO+4j4KPf8g7ZRRMDxeYxINwSSGIIHtiM2diL8lSXGxfGCyfDpYEgWTa2tPEVMB5F4XpEZX4TIOAk17dBuqx/SGyixYiTIYDPHkTsWfiGH/YtkZNseBGrJsYMMknreNDCRBKDgI7xEzIzZfe9flF1EbjQ0CnmLV6Fz+mLqMTloCFFPSudBF+o+IlbtnPrbGpDKDa9RjOcf2obU8s1Yv+5FrP3t0/jIDVfhM7d/tP8EoC55RJC4kjP85GwBL9jayM2adASoE8QpIfxsOKBdP27uaNdN61aHW2nibKdbVnsTr8xLxc3X3OAgSKKf9SGbG0JM82XmsgwHRA5W/XHeB9z2JKZNj+gczbQmK+8jYhwJQa6kVNLpHx+J0kcEGoFxJ9InMSufAbXJ9myKEYcT6D6WCZIwIhyPL8Rj4mxXSqmNLY1j85OzOBbbVzDpI+73oNE7uvqTOm/2LKBwElC2Eb7TqeySeE1CSdL1CErpmL0KTQuvIPEXOczAfNKb1FcxhSdRY5l5aM0aCxtd4QwE5l+I7ENbsWTbs/jl48/YTDMo+ZXcLYlqA66mBcV5dTZ43I0XcbaeGQUJWIwoj8SxPlbG2azRdOGksVsq4xTihaKa+WyTyK5JbbB+ldMKIu5TGTcIeFa/6vLqd+Jem4nniTLqq9sH9dukgtt/9dPSnH54RZw+dt0NJjZ/ziwsnEPluGwzAsfKnX73Slj0kyCiG4vnGfKNOLmr6ucS2Xwl6Nxi/THCIaxFwNp15SdAKRAbNQZNBTPQQQYcOzYfX1rzKVPQB9znLpqXKuXe2YVfiaviduMqVUnNKNl9ZqmJuD1IyuhGnWpUyD5Om5QAPdLdxrvKJ+pVkps5OS057pVSmpfuNJco6mVJXL18iYSBRTzld8L4Qlx9yQXYseUNZOx+hYLJRaTXZ7ty1JRULZRQMa6mzH7C5syJRUxgSE9mTcaVJqIVlkjYUUrdwg1/wNZtm/HJG6/D0jPPGBwB9D3M5A70ncsYO/lxP4slFxnW+Aj1x9MDNJbrr14NTDodsY2PI3holzmz2nrUBqoO+ehUy+mJnGyKpyHcHp74S0RKIpCTTcG25xDZ+RJmz1qAj//dLVaOpDPw0Dd8XC4beJVdJU5YRd8td1UwgrEh6I5HBKfNn4uH/ukfsOdwDdJf/Dn89VSM5edArleediK/3dzb+4kyIt6UYXE+ZcCYrc8ia+PvsLMugn//2r0Jh9N+1tZfoPYFkb7Se6m3N8ruVlw33RJ6qWSEkk5IrH33QfYIrQA8g4xnQFowby5yqQz6Dm5B6MlvU1FuNJ8Azdlt/GgVcsIgbifB2BRG/SWSko44DUdF636JrHW/wMaDDfivB7+Ki85bZdWIsKjxOEGdcgwlBK4qUhAyFPeulqS5yBu5a0jpNlcxk/dYdVhggqUJcYr3yKBbD6d6lnjuPvDu7ao0fbxvi3Z9OY+6nnplu3K4MTdjIr+Se0tLyu710U3SasKDRUzmQ+nbSbDysnlXAVz5hXDFvbBj9x489dzzePTxpzG2k0tOGr+iM5ZRAqTTetqKVq48LHefY3FroqIqFzfBT8rf6P2bkLvtT6jc8QaOpeZh7Q+/hWtXX2mZ1Y8EAajrukl0KqlzTHRq966802aJghwubTnG7kkjNcRJZOmZrlqWGMIJGA7aARCvalyUmlyGADRgKl1t6Zm0+jg3bNSO1aV6nXzWrtuWlkzWf7YgzZ3fVsapw6lLzw29zGtLLF1ZlwUrwxjzWL8smX1kCWtHfbHSTr+lfGrsCLfwDILDQ0FaOhMhCVaJNDeifmhfpJIvpZIfwNonnsLzL7+K3RtfwtwFi4CFlyJ89ofp3DqdShuRT3uK9ZN9dJDbo0YXPQQwl971yKQtIe1IKTL3vYXm0g3YdPAYPnT1Fbj785/FYp41UPCQr7j1XnXU1dejnZshok4XLHreLahgSkqKvYVLGxNxUmfbzPlcYnBjKH88YjS9hiXaSIV2KIPLkBg3cjryJyConbcAX9jAMpEZ3Azi4CzweczdDLLlmRDDuS+aOw4BGm0QpHGICGieuZjZ4+ik3cAIxEVSnHsGYRqQ1LcYr5ncC2AG/lMEzltuBKE9AQtcX8dyaFwSAZtdgmOl7cC3bwurjiHKvjTPONPi5mPoElsnrZAam8Ga+WSIiu/bxLV7MWqO1XI3r4naOUW0R0hOa/atfsntu/LIEb7AqgRHjx5Dyb79ePTZ53D0YDn3HiKYMvssnH77/WibvRIRusz7+EKLKLm+2bVVyA/S31qPjP0b4KN00O6Khk+SoBNtM0LUD4La7TxajqZ9G+hbUouS1gguveBC3PeVD+GDl19G8++oxFvTEozOOmg/iHG/xof7vvktfPXhX+LsSRPQKdNun4FrUSIzRvt5lCbJCJFr1ivjVpd7OWhDkrhEhgmu0c0Vu3o/kT0RcX4cY4Wek7s8wHnlhBwSgTyAA9ykCdMyGKGrlJ8asNkdkvsmgtEa3UDCOa3hCK2FRxHj/rpeAcPdEXddzSzWlqSK+sm27UpwitCajiFMrtOOoaWrL17w8upe3M1yoZpys2QGaMv3J9r3CnRdIzwEU0cCOcJX14WPUbGrr0X6uBzMWHgB/CSs6NSz0Fm8gJtARewnEU2miRKZjUS+ln3spRFm5p7Xkf8kiSSYi07C3s9+dBBPdc1NaOVGkIVJ03H52edgzuyZuITzvA6V5I8mwzB4Vke7SfoKetTQRgqmczrax41FOzdwTOxYRk0NHHcSPDRgH7cu5cIdPPC2C5SkWsUqlp9fHvAoFeJpWfDXVQPuO3scnCUyd1WgBoVYIkMesnLvTtH5PasrqSMqYQjpSotLc6Y51E+TrvkZiLhse88yO+NSk8lB5lO6Yadyo8qIxCSIm8Gr2iuje8bjnJ9VRhIvTiT3FqwoYZWbl4+8oonwTfgwUDTX9izaC6YhRsuk2e05BvNviJGpJO1k9STyhRurg74Ro0rWozN1LKbOnMs3oVE34IZcQf5oTBg/HnNnTLcNnvSMDJw+fx7yXKSrTz0VzZ79TCiBBDcH1om2ZTeiYcJ8bvDQyYIAVwfS6T8fkhu29YZwZaoT9aDSs9q+7lWKZfpbTNk9qdBXlb2mD6IdG1F/O6ZGuyBA9PXaC0vk/oI2eMySSfNynGcXFGTGFrE5p52oW5BQouT+Zpqv9aYzY0wSgfwlMg7vQYwrg9H5BXjIXcJ1UI9I4WloTckBT4Jazc6XEC/m6G1aSsrm6AAaSkSikvN6mPb2Tu4oSYs0juOzEEVphJsNCQpIruF9HnfIoJ9AEMK5keOELkYQ8iOcVluSkW+ZKAE4hWZzj2BnyW48cPe9mDV9mj0JEfFeELJdkncIRxLF/Xh5+rqaBDAFSmJfJ2sk3kmdptVrWaPATviiVHw8EeCkjvy3SQM1ewKOO6leEYwGyWGqX9VqGvMCxyOrnt5hKIXPE/v2mM/ilLpptYcQLHkV44pnYPVll9gjSYhkzk6OK4Pw5E3tVuAEX+4U4FKjOmcdtJ4yrjmIfwb4nkBxgaXKmW94g9rih1q6TvMmFMihbJTiVkqYKZQm/VwYDGUb3epykBSmQiex3xvSlJa7/y28vXMrvviJNTh9wTyrQQjvC8GesmdSgeW9JXu3ppNuksgxKTU5Ko4wtnCvQoSAJUKRwkUqNeQofaiD1xY5Ps7501+5Gz4eDrV5VH0Yija9Nij9fE08dUOl1pmnSQBD1UZPuLBN6Q0dFPuN7nLYEOGNh1cph0E6dKTtfYXKZh73Cq6yWoTYnsgXoXgIF3HUNzTid0/9ias5TusMxsAWO/7Lr4cSPda2lmxaKlkQQoVsfqRF66oPpwhpwPL1C2x7gT54m+0go3GOBzCrjHn7HZLqt3Zc5GrlQCVIxp3A3jcQWns/TaTf4bKtxAjCODY5f4JQT9Cw5U9qj4AWcfmOHkDoqe8h9Ju7EdSOnKSffAJcy1qCGLzy/Wkr0Y2k9lhec34rr+GSN5G562WbaGWDcGAo4iBCSX/5pW+gZNsGfOyaq3Dm6Qu7amNZB28O4kUQnlTYtbcUn/zCP+IRuosFXSPViQjAloEBVpAaIjfT+OCnh6pEuixd0gdiXP/ZCVp2UBX56GUSOLwPge0vIPj20/SqyUX4/I8hOncFlwv0bJX2KdyLGERQ/QmSJjLOsF0Laltt0fgRpB3Av/NlBHf8N6UNX+0iz5Zf34PIOTcgSne0GP3jjCOMSPvRJsdk0kttaJwN1fQkfh3B9WvpLFJLqZaO0G+/hsC8CxGdfz6i9GiK096hMmYlVAfZN2MUjdXtstPxPr7VJolY45M7WXs9bRW7X0Pum79HoOkIvZB2oHXWcnSMnUxjFr2U6M+XWl2K1O3cvcudgE999GZI6fPEe3IrnjQoKz+Ip//8PL7Lk0MtdBKNsI9PPvMcrrnyciMOlVVnBWKvjOoJlh86RO/RTHTSuZC2RzOcRJgpwLWnn9IghQpKnJqrn4APHqDHbQ0Rsv9N1kL1IZPeNkRy6MkHEdu+BNFpZ9GGvcTcm8U9crkyYHvcIsJQ6AY03kS4v93GjQ8aerR29xMggap98BEI/nJa3GhIQvpop2waLXcUnSnPfBfBzU/QkLIU0Vk8UzealkhxbM82VUrtauQkSh+tZj6dMaBrWQq9h/1cX/urdgIZfG9BKvsrwmUbge3PI7DlScQmnob4uFmI8oXSsYnzjUvjevWs3Nfoku5UrkYYjhuf2mSixka9wsf3H/gpybL2rkOocoe1F8+gf9++15FW8grC4+nokT8RrZMWIIdTUc2hMnzixlvNodMZAreEaa3t6HDc19vpF7COx8Q2btqCJ198GW+XHcSC4vEopH2gk3aCNfc+gHradq7j9CFLYHLwfkvBV7hwaXxUehpSSWE+cn94PA0V2XnwN3M+pC9fgBYyn16jwp0pdPCTSssSfc8seB4oovDWOvrvNRtRCPkxHmWKFy2gGKVlTdQvm5Z87TUSAUURLYs05TQeIdK30zeQZ/8lNVQXiQLp5Dx6wVrwphfdCJlqU4hsPWoIi6fST2/iXMSLF1J7ljhVm8xngW0J+VS4JEH8FWyLJlS0sZ2MfK1zHY62frnFPO8iLdtaj5FVQjRKSRJwCuQrZeIT2Q6Jzs6jikDVljXHL6tH0ohtav++Ygf8h2mYkhtcay3dzWi6JpEZsSmv+sqLr5PucHy5RYxnBAI0TjV3hFFcWIDJEydi4niaxiklyw5WouzQQVRWH0UrCaFy/2FrZ9qsSfQwplmcRikZk2Qb0AZV6c4yXHzJctzy4Q/hNBqJ5tL9LERpH5TEVa8/cMMtbBqorq1Duw5E+GL0iZM27GjE5s6lkUnZk6g2REicJAf1nhUKMUKgBkVzpoAct50TpzF7rmIeoIUU1cc9AlO8NN+ajFJdaovE4eVNbs7iapN5vD6JmGQP76Czp9XBZ8nB2uLcKYKiXmHlRESJ8Rj2kks4ca8/yidiVeAYfR1EFt9BlPDIUbryKlif2T9elRKX63yiTeo1/HOW2ZY78WVLcJZI7WhAG5ErM24OObeF7w+Q5U/l0ml6FrN6p5dsM4rt6tX4Nm06VOjEmS5Et/Igz6GaYyguGINpkyeZLWHFksWYM2sGze119fG0tFS89sabuOaOT6N47lk4POsi4zDthFnQQPhbOn7mcwaX6HPvERcQNsc6IOg9n6U6S01rS+0ZxE6Qva9HHvBFEARUn0FteOPqM9M7PFBb1l4vnfWatufUn8hUcSKzK6h9907FFXgvKISpkI47tAVxzv3TZ8zBj779TYzN534Ludo7qeR0XaTghkTES+jlynakJEoPiEpC0I4g38Kc7CwE5ZeuMHfmTCrVIXrYNpK6+IMKFHnGHeoaW/X5uTlD23dXy7001EtSf/qnYv3N10sT770kIj9OIMda6AYfpeKlfYMTBcI3SgmbzmVfdtVWbKppxk+/twZT+Zq44Q5BUYLmC1mk5k2dgtqjNUhrrkFzDnen+EwcaRtBnD/RyWlAS4uT5aDhHtW7Vb/L0fF27pZqc03TjiTBiahbzyi1pCAWlb2KTXt24+5PfwIXrFppoxDXJmvtQz00v5AvDh8/rgBX8tTI7l1b6ZZ/zN6+5YxHFKBBUOxo10vxv32OhwHhKESL62Nchlmw6UhQ7PsjUJrD5qGNaCvfirNPOwNrPn67FfeWfSKA4fpIfXVEPBuZNnUKJ4t0pDRWITCu3VFwlMENMc5lAWqaRgBe4hBfNYOnEChhEhz5whYOnSfioCFuf3DVUeRTSTOup+jvL3yk9+j3i3KqdiOnYiM21Efx3He/wC1ennAi52veHu5gLXgi5pzFZ2L2vPmIVe1CGkWSPF8S4l6kysFpoP0d4EA7r84I8YfbwjjKubOasKzq4MmcgVY0UvkFEy61hPgYj2oLPv2FjZAfpdKXRmYrLH8VG/aU4/v3fBEXn3euw5AjgHyBqRtsJxQV4cLlZ2PtH36H7LoDaOXRIg6x2xQW45IioPPwGvwQBtWmFz03cdly76pJmJAao3EqijeqO/DInmMoCNLFawjbG4qq4jTKxLhEc3QljaCfMOE47Xwjl5IT9r2E3aV78Pcf/Qh99W9NdKufNSXyDzaSkAASOSE6GFxx8YWobu1EZs0e+plRizVKdGWwKwViHPhQEwAnFtTxWPSDK6Zgekc5HvsO7f61Zbh79SKsWTge1ZQEqSMFlXeAZpxWU3G8zfWyDwyEGYh8M/zQmjmp9EXUl23HuUvOxle//CUzxw+30tdzaIlJJjEN8Az5RUuXoo2epVl1FY4ymDwHc7BxSgFnKuhZ3eDuQ0Ts4Y4IVhfnYnKoFV+761489/irKK+sxt7t27GqiGfdc9NJII6P3OBaOclSQnKSuNdraR3ED4AqXeRHWU/RvpcRPbARaXwN7jfuvQtjuN7Ximwk5v1kSHQjAFHfmLw83Hb9tdhz4DBGV++gKdO1diVPBBJhWubYiwxYnQZ2EoGaBuuKYdIoesM2NeAgJdDiVafjiUcfxT999vM8H1GPgsxU+iqeXDuD6qIQr/Hytw6ifJePxL6FgXC9CghGXBXQhojxZeuQcnADdnJZ/ZNvPoCFPBAi2Pfm2uU0NnzfCQKwJtxBXXnpxbhg5Qq0HtyGvKP7EKGJNtkp1CjfDB1c7tjABsAFibEQICrLj37pk06HeO1IEwL8QYfLFs3FWztKseWF17H6ikuQWlCMdTWNyKceoKwjElzEC+FRevXGbV3P1geKeHVW4+RUGmHZwv3rkHFgPd4+2oY/fusBnLucG1l8buf9RmRg3RuhMqredQVRosTQL37zGG5b80WcsfQclM27ytkb57NuAFDHaZf265UjLsC6PfeqdZvg5OGmMMY2WNq2nOX3lk4aqmqP4jMLC3HJxBRse2s9MrhLWXzaYvxsUw2eLa9FYWoQw74k1Dg4zngnj1OL26XZKwwG8SqnsXOsEu/j97+G9PI3sLWuA08+9CCuIKN54PemYBUZyXAcARg1crB6E9gdn/sS/vLi88hZvBrlU5YhpI2ensEjAiKLMswZcLc8LrIp/myThkjXjl8K3yQS4mZKan0F3xhSQpfnDLTzYEQVfQ8vLc7GWUV0ROVc+dS+Y9he14rCUAAdhOVgZE237vR2Y5U6iI/R29Zs9yeLeLajpZ6d5uEm1YRS+jTQ2PN2YwRPEfmXu78BoO68W8i3tntKACV6UmDdm29h+c13YNH4PFTPvQoNY6YiJS4icHjZ42ejck4Tfr6VykdTsZ4Kpjq84Gf+AG0KestGgMseH/dP5XoVKN+C5ppqNFQfwjTujHZMXYYjK27hblc6DvONYnS4d7BNri+k6B8W5IuriSRZOO23BrRpIymnMFiOd0ob8mXf9/ONJJNo4u08sAnl4RB+/9A3eGLn/Hed891uqp+SUd2DJYizCYTv/+Rn+If/dT+WnLEAjf4sdJAz/ER2gGfh5NokDxcLqkY2ba7j43oFHJU6OTx26nwb31yFplqktDeQIFg+mIaCyTN4Fm4exk+djifqMlGbMY6HTbhpwmUV3ZRoDXTq7ZDm3b17J3+nuiXmw9xCpag3jd76747lZFpw4Rbmhlpm3UEUlf4FVQf2II96zI8fvB8rzl76nkG+htkrAeiBNxW0Uvv9/J334KdP8IeMJhUiMzuHLszNfDtVK71O6OyQgJki5CYCVnO3nA5yuaLIyc1FFj8Zo7KRyb3t/HHjMGnKFOTy1WiZWVnIy8/Fr9eX44HXylCc5qevnFof4mB95JeQTgLWEtaQPgRiPrmnJvLJFFEScf6R3RhDzt9YUooPX3wRHrjrHzFn5oz3FPLV926WwG6DIWY1FWTQW+jr99zJQ5DH8Je3NuPGc1Zi+WWX2UGSTorM49atRGCQlkK9Si4nJ8fWtzk5fGuYlD5xmRcY11s5O0lg587IxeztqSjl8m90gGcPk7J52Qd89ShTCBfiZcJmeyIAdsSpzssz4Mp7FGB9kpYRivwgt9OLqOilVmzmefxjuOuTH8M/f/6ztvcueCrfuznn9+h53xLAyyjnAXmflJYdwPV0GNEPFtz2sdtxwZVXGfcnjjF5BXQlQARiGzBjcmiU02kqCSMBAGWQwymv6VwC/n5zBe59mVIgPYgWphnTqq7+BA+RLmKNyynejeMppXRNBC9vIuFkIkQ8+ypFT2bs3KP7Me7gehzj+w0PxNPwq6/dgxuuvcbG4m27n0xrw1G2zykguTGv8+s3bMTqj69BzeFqfHbNJ3Dh6g8iRBelsKYCcrgXSOPdMOhMJ3yVHJW5FHJJKl/HKqOH3JYlGYL0FWyh0nfvM7vxlwpyEBW/NnGVV2HPq4toUZm421y1qHMY4sXhw8Hl3frgIF5L2Qj9AUP0Ji6s3IIUavlbd5fjatou7vmfn0ucx/eU6m5VvEdu+kUA6qunE7zMnzb7zJ1fwfYdJbjt1utxxfU3IJevjO3gsjHB3X0MTnUQZyYhhHjnI5Hox6i0EHbXtuHjT+9BLrXyIJeU4qoEJSmu8rrKN4+iw5DvputZIgwplydqtYjmeSFev2AWoFNqXvVe5FZu4tl/Gs3yC3HXp+/AbTdch1xOfwnP22HsT/feDfxuQASg6oXkt3fuwpe+ch+ee/5VXHrZebj6llsxY+5cIwIhJVkanKhLhkxmEOriRGgq1/qvH2jE/c/uwbgQl37usxPV4YiJPmXFCYv2/2EXx+tn6vRevtzaAxh9eAtaKnajpLoJn7rpOqy546NYSM9bhfcy1yePu98EoELGweQAca5ecfLP930dv/j5Wiw6ex5W33QTzli2HGl0HtWUoDAYZSdAzn98SyX+zxsVKEyj8Yf1SE8Y+eAgXe1q61Y/axcItyGHS7u8I9vQXrETu6pq8YGVK/Hpj96C1R+4tJuiO5ixj/wYiSMidcDg9XQCva/+B//xc9z17X8nlKK4iQcQzrviCkye4Sx37Mg5R9VfYKgj0iR81Ake33IYP3qrEmMoCVgBTcAn0AmGEHIS8ZIq8keSmNeklcrTUHn1fJ3LkV1oPbwXe8sOY8XyZfjUbTfhyssuRZ7rWPvXwvXJ4BoUAaiC5ME+898v4L5/+y7WPfUC5i07A5fwTVSLV6y0Nb/yehJB8XciBtGj8kgSPLOtCg9REkjVLkwJoG04RIFL/5pE5OMf5YpHc5Kfu6DZLTXIrC1H2rESHCjZzl9A78B53Ly57cPXmB1ffpQKgoX6/E5js8zvsa9BE4DG4SFL8Rq+/OiR3zyKf/3Jw6javBNnX7oK5156CeYtWoRxRRMMOJIcUa7FTWEjwBR6A5oxIR+LCLZxVfD9l/fhYFPYpgRNLoO3E7jCzmFy25vQ+4V1ukfIF9JHUaPPoJtWJpHeUl2G0sMVVPrScfsHL8cHKeZXkQD0fn+Fv2bE2wD4dVIEoEpEBPpIL1DYvms3fvnYb/HQr9aiaftuLDz3HJxDF+f5Z56F8TziJOuf8ooQVE5ATCYk1SGiEBGwdqRRMayoa8MvN1Tguf18BRrL5qb40U5p4KJTGXsJfOoi2h6qTn0o34VsmbCF8FR9+Hq17PqDSCHyO3hs7GhdHY61dGLFojNwGT2lP3DR+Vi4YL7ZMlSX+qvQG/Hag7+ir5MmAG+sPblh87btWPv4k/jDn57D2y/9GTkzFvCI82lYtHQJxk+iz9+kyUh3TcYB2gNU3ojBJQjVawRCYIcoCTq43H+9tAYPb67CERKE/AdyaDUkHg2pXj+U4KLHRTQJU/sP3IEMUk8J8sVW6e11/CFzblDxIEbn0TLE+YKGPeX7iNEQlp+1GCvPXoILV67gWbq5KCocl6jaG6PaYLOnRBgyAhA0hDB9PGmgtNL9B+zYmV6I+NLGzajbsQnIm4xzliyksjid+wJTqSsU0JYwBln8geQ0vukqhVZDcZeWk1YX4/IaClIPqGrqxLq9R/HnPTWoJJfaWlsHMNSuSIFn5PSTKUEedA3xnGA6D3fqXXoxcnmw+RhPPtWh4kgVju3i2834A1Lz589HQcFYXHnhBVgwb44dnpw0oUhdt+CNyfrDfpxqYUgJwAOOOFD2AOc8mwM0/UByyf4yrFv/BnaXlOI7j/2RigNP59aVW7GJZy7DRHJbNs+rpXIpmZWTS6LgZhLn2+zcXLMTCBkhWhOpHKDiaBOe2XoQHS3kZDqvBojoIJdp+uk4vXOnlT8s0cJdyBq+axA8qcNdLEqNVGTzJ2JuuOh8zJ89E3ncrLpg1QoabbKPPz7N/iuICE89tNvQnPERqI7E7EobsphHCKowWSro1SWHKipxuLoab/Fsexn3GSpoV9heuh87du13CMP2qYQEeeRI9TPPQfee1gG+yQy5zivXTOYraycVzIx0zCAHTykqxLixYzGWSB7L64K5c3jMuth+Zm0cOT6DRNYzSEmVD8OpJOJ7jrHn/bBIgJ6N6N6jM12TicF5xndU0uGyvqEebTxNqx9SrKg6Yr+Lp59Ek/QQ0TjKobNMFAK1n6CXW6RzxzKbP5w0li9G0H0qf6dQ10x+9AtZvXGw5nOFZEUuOW4P3wdfI0YAybAUEXgEMRJza3J76sdItJk83vdy/P8DLzR9VVjVGZ4AAAAASUVORK5CYII=;" vertex="1" parent="1">
          <mxGeometry x="651.5" y="200.54" width="30" height="19.92" as="geometry" />
        </mxCell>
        <mxCell id="7jXJJxEpb_EreKCAJciz-30" value="" style="shape=image;verticalLabelPosition=bottom;labelBackgroundColor=default;verticalAlign=top;aspect=fixed;imageAspect=0;image=data:image/png,iVBORw0KGgoAAAANSUhEUgAAAOEAAADgCAMAAADCMfHtAAACT1BMVEX///8AAABFeLUeGh78/PwdGR0hHSGWQHyZQHmUQH6cQHg0MTTd3N0bFhueQHaRQIAXEhcGAAahQHOop6ikQHGmQHCqQG1Ddaq7QF+0QGWtQGpBcKBGeri/QF23QGOwQGi3tbc6Y4VAbZjCQFnDRE81W3c8aY7ER0nESUTFSz7GTjg6YHEwUmrw7/CYl5gSDBI+Oz5wbnDGUTHHUyvBbi28fy64hy+yky+dmjuYlkFAWJlafY9qlYlzoYV4qIN9r4FZh39Tf35ImcvEw8TEYyy/dC2vli+pnS6Njk+EiFh9hF93f2VEXphIZJZQcJNhh4xEbXeGhIZkcXdYaIJfhY1ml4K9ey6jnjFwem1UdZF1pYTm0dJLdnual0CIi1ROYopsq9TK09lUUVRhb3koRmrSssbi7va82OtjYWNban+XM0DAWWA2Kw7p3L329NyRvt5fpNGFudvmvL9rJS3P4vAPGygVJDYhOVYmDRQ+FR+XNT1yKSweCwomDhc6FSJUHjB2KkGvQTuAMCpdJB1AGROLMlKaPihrLBqpRidzLVExFgqEQh43FipVI0GsXShpOxhEJxC/X3HdmaTPgHbBaFvDQCOcYyV6Tx7DdojdpbHhq6HsycC/QAAjGQmyVnPGjnbCbEnFgkxsWB3So3iTeid0M2ffv5zKpWQ3Mw+0cI9hLFpxbynb0JGsZIvi3ay9tFhSUincw9K0tYm9kayXoLUtPlA0SUZJZlSIp6BcgWMiMSS607ydwqMrPzu2V2yFnqjJn1exsXM2OCKutck9Xlmgxsg6AAAYaklEQVR4nN3d+WMT1fYA8EwzGZFMcMaIZSkSqoACk0n0KUtZG6QsbSEIYhGhjTUN76u21bTgVyqLgKCtPhdERdCnoLKJSylF4PG0/GHv3G32NHuT8fyg7ZDlfnLOXSZp5nq4Mod84MD+/W+9dejNN//J4v8h3n777aNH399/4EC5n5/zlO+h5YF3Dh48dOjY9GnTZs2a9SiJx2jMh3j88ccPHz5y5N13j+4vXyvKJVTfQbYZ0x+BmDYNEU3A+RT4+BM4Dh8/cuS9o2VKZzmEg0Mnjx2bMXv27OnTp48PpMIFKE4cP/7e0TK0puTCwZPHHnr44RlZgfMtwAVPQpw4cbzkyNIKB04+9NDUhxFwRiHAJ59C8cH7JW1T6YTq4MkHHwLgVBvw0ewlagA+9dTatR/8q3SdskRCdXBoyoMYaM9g/kCIDz8qFbIkwoGhk1OmTBkPiHH/p8dhAC7Qwwb8B8Tpj86WonElEA4MXZjMgJYSRT1w1sdffPIGiheN8cYZOPLVp58tOHXq1JOOwGefffbz069WgXDg0qRJjkDgPfLFl4BRFN7jHLyiwL9/9emJU6eecgA++/zzJTAWKRy4cN+kyZMnW4GQv+mfvAG0TDaTE6Bnvjnx9ddG4D+Q7/mnIT4vslaLEiIfBhoGGZgHZ5/74tdcaBbomW++NWaQAJ+BOF+UsQjh4NB9DsBzUJl561goX33zbxsQ4rsiarVg4cCl+++3AGfMOPf7K4XzSLz4w/f/JkIduHjx+cKNhQqHLtx/333GPggZvPjKi/kXpz34F898b8ogCJFxQoUDFx6ADJqBX76olIBHQlF+sAAXr1t3vrA0FiS8BD4jcOrUqV9mnBIKC1754ZmnDUAQrltXUBoLEA5ewEBDH7z6a0l1LF770eRramo6/9MECNVLD1iAF8vjI0YDEBGbvst75shXCAk0AR+8+Eppy9NqvEKB2AdxOd805idUhyiQ9cGLv5ZueHEO/rUfDcAdO3Ys+aWMQlShJuAr5fYRo57BHYh4Oa9KzUcIc4QOhMX27xPhw8Yrum/HkiX5EfMQDj7wgN4Hp0y5WuzqJZ94/ZoBuOSlpXl0xpyF6pAROPnq72UdYOzx87UmHbh0ae6dMVfhwCUT8OJEJpDE61cMwKXrf8m1UnMUoknCAJywHmiKn6/t0IDr12/4q5TCAQ2IBpmrBZz9lSRe/1MHrt+9Ibcs5iTEYwwFTpp8sSIJxMFfWaIBd2/Y+EephDoQlegrFfOheE0HbtiYEzEHoQlYpkV27vH6n6REEXDjphyI2YVG4KQKjKE24m8sgxs3bXrBX7zQBKzMGGoJ/jcd+EJ2YjahcZCp0CRhC/4WBSLh1mzELEITsLznSXkEEDXg1peFYoQDxhKt7CBqDpEAtwJw715f4UJjH7xaTUAgsgzu3fvcc32FCgcMS7WKzxLWEHXgnj3jEccRVjUQiHEAvoyBLZ3jEDML1UuGpVr1ARGRZrClublTLkA4ZBxFK61xjJgGXLZsX/5C4xl9dQKBqAGXLevPVzjgAqDHM6YBlzVn6ooZhOoFHTjR71fkEfywBmzuVPMSXjIAq2Op5hzKMAM2t3TmIxzSB5mr1Qz0eJKtDNjS4jzaOAoH9Xe2J/Q9w0Ii2cyALc4Tv5NQ//Bl0uRqnAjNMYaECFhfv8ipKzoJh/S3LH6vdPtziOFlJIOtra3XcxMO6sCLlW59TtGGhPUAbG1zqFMHof4B6FWx0o3PKZKtDNi2MBfhkP7pUvV3QhIduEQB2NZgr1ObUL2gAat4qjcHP7aHAhsabIONTXhB+3Spgu/85hvKMAM22OrUKhx8QPv4zC01iqKjjQK3bbszvhDVKP2M3g0ThR7DDLhti29c4dD97G/VprinRlEoDW0EuHnzyHjCgQvsT7kedFONouhoo8DNa4RxhEPsjxAevFrpFucddylw8/KRzEJV/3PKal9w20NpIMDVy1dLGYVDGtA1U6EefIgCl5uTaBJqQJcs18yh3KXA5cszCYe0v1Wr3ndmxosYA26/5yxUtT+nrPrTXudQRilw+3Zn4ZD296Lumuz1iFHgihU3nITyBe3PKd012evBj1LgiptOQpRCDJzq1hR6PCFUoQDcufOGXSifZMCH3JpCSCLJ4M6VK2/ahYOTptCvFbg3hdATSQZXrlw5YhMOad8+c28KIYnbCXDVqhtW4cBJBnRzCj2eUQpctfIPi3BQ+96EO+dCFgqq0FUoRsxC9ST7ao9rpwoS/G0KXHXTLBzQvtrjtvNCa4gEuHLlzj9MwiEGPOfGNbcxlJUUuHPEJDzJviD5pftOm8zB36LAndtNQu0boG4vUo8HC3fuhHnRKByaSr8gWQV/e1hsKLcJcPv2Owbhsan0G6BfVrp9JYhbFLh9tS5U2VdcZ7jz1NccIgUahQfZhQLOuXsyJKHcJsDtq+9owpPsSghfVLp1JYnbGLh8+ep7mvAYBc7+OxQpdEQKXL2GCd85Ri8UMPvvUKQwJa4gwNVr7lDhQXaph3OVbluJYhSEq5FwhApPUuAj7j5x0uMWBa65R4QHjtGLdUxz/3RPQllNgGvuqVj4zjF6TadplW5ZyYIC12wRsPAgu57M9Eo3rGSxnAB37bpDhOyCOW6ZDZNdSe3ndHuvw9nQKAXuGkFC+dB0ApzlkvMKvruxsb2L139J226SpEAiHDjGLnlUvbMhzxuu5cN39bYjY5L+1tPYZU2jQoFbFkpUSC5aVbVCvqu7u6srnU6yxKW7enVjur2xO2m5w+ZdGLhloQ+Eb00n1zac9Z/qFfY0oujpBSi1JLsgj72kPpO9jd3mLPKj2AfRB8KD9OKNj35StW9g8N097QTZ2NPenSbtTEJ59pDkJbsbLeNNBwVu8RMhua7aGxPf9FwD9UM+2dXbQ5Bd9Cgq1ST9qdd0BypcuPA6CA9NoxeOc8OKBooTK+nYgtKIuUDsNt5OpEAklA+xK+O5QQiR7oYe2NhOahW6INEm23u6DDfCwoVEqB6jwFkuEdJRRu+ChJjuaTcMqMo2AkTCA/+kl9/82EXvBaNRppF0RyCS7HUZB1Tl7kISizjPfnaR34+rdrJwCpQ7rQviH2B1o9epLlQ9+9lVjKtlshDFnIqJ74LeiEcXvr2xB02MSWOdhigQC+nlRatEKMIJTzCnW8JahhQmyiKydRnG0xAFgvAtdv3UKvnEQvQHhNyEMH5SIvyAZnwYWLWe1kGBi/qo8LHHHquSCT8PoU5Eq2/4X7pXK9MOCnS5EBPpKNODk6n9SwfxLZrb5znILoLrRiHqi2SUaTevaXRhv+dNdpVfVwrxug3XKRlstKDCuXOvg5BepNkq5K0XkM1wQVnbrZxuxuv/nOXKtHkKgUYW3ZaFKRHOzSxURDEYDMa0qYkXxRj6nV3/Ef5dFHl0OBQURUW/VwzfTdHuhf6Rh6MivUE4GvFHw/o9DBcZhp91IX4C0bAIsR1gLaMTfhKWqlbhXCJ8zC7kY3FyPQ0pQVoWCyfw18HVFG1qXPD7/YoSxjeLhPFBJRYnt+KkVAg3JRbx+6G5oQTHJdDvYpSTVUlS5UA0hmFKPBVlL6ISxj8TITRA5nyReExvUUTlOIE+sDGSPeQUqr3RuPRGwrlm4XxdyIcicsCLIqCG0YFghJN86HefyqXwk/qlQIALRTl8M0nFzRS9MrkV3EyKoyNBzudTUzFBEnwCflhV4nx+f4CTZD+uxJhf1UoyFlGFEBb6w0H8yqlwsxBpUTgic5Jf4GQualvx0LV3V2OvoSeCEAPnMOH8+Qah6FdRMyUp4POh5w9LEnLIqg81PoKIfqAFIuRlQAfDPG4b3ElVA+SlgSNBWRB8iUgA/uuHZYZfUiMhVGuxBCd5g1jlE8KaMOCnwoSfi8fEWNwXkPz4BQ3Cawa9QYTXSI5bezFPkgi5NJSpVTjfKOTjMm5jJBLgZBG90AD0cYlwnENyNaUQoTcAalnCWYzA7ZQox8mJeEqS4ZWQ/CIRCoJXgJsK0HSJi5JexytxThLEDEKfEJBxEfMxIYCfTfRJ3hg+zxcjKk2rIbrwpAhzouHkomPhXKNwvlmIE4Qa4AmhPh+VUULR44oJZJWDVOiVEuFwAhcmB7fmgylcQXw0AMe4IE+FUKJ+f5yPymqUvh8BQ1Q8oCYyCX0ocXhMjsleGY4lVHh6cseQJEetXRGW3iiJ6UbDyrujjQCJkFzM3yL0s3qPoV9VePXh8WMRIKow/GChhIYPBamxh9wZRsQQvkecCX0RKDCPyEkRhQLhkZSECg5nIborvVkkoMYVBUY4kd1RkiIxjyW68LvCyd5u3d4xhwBB+BYFPqELI7jbQbtwq4MohQH6GsZVlN4YEXL4qcIoiXIY31aMhaOpiICOwGtChD7SorAMr4IennDAG87QD6GLslsFYThXgrIcp9lHY5zfJqQrGuM820GB82BdSrdjMAjjHC5BGQ/WCuqV6HXDT4CEPpCRxOGXLIhAahQeXQmmAjAAkgEVdSAslKL4QVOqFPMYhKIAzXYWCrpQgbFXjKtSIsjCj15ta5nSZakhOggQCY/S/SaeMIylERWPkDBYh4kQmktfea8P5y6FhfhRQ0yopHww2vpUGY00XlSTWBiI08KAujcIFQGynIPQK4nwZAGvQAK6uMPpY5ftwwuo0jlY2O/Zz3ZE+Up/FUQYzclQIoVxYZJuiIRCRiEMJegHLhWO+32oI2cVppyFrGCokEPjm/HyM/Z+iN/YNx8Zo0DI4X62Y4hBCMNiRMDzGjwbrtKEqFdpBmGMY9WKa9gi9ERV2VKl6D6OwoRorlK4a9yGMgUs3dqdhPPm1SMh3RLlU/MgHIqi0QQagEcagY00Mmo7G2mMQiCgmQSP8uhHqzDIyaaRJh6Q4lAsAU0Y8vvsORS5QESJq2oqy3s3sK4x/a4MYx8WHjhM93z5zPogYTRkqOGQD/4nx/FsgSdE9HQOwghOHG6bUw5FwVim6JHAA0IfS0/Y66X9MKD3w6gKs0VM9tnHT3PASZTp5ElpIML6OSoR4o2ztHeExRDGhkDok8JiAmckhO4XJ4c8TkK8GoDhFWZlMqGahTBiobmaAaNeKYVmxYCUIrUD44nA5kN2O48oo6UGL+ND40W6x7Tu9iTbaArnqh75CN21ZwET8ikhEQ2H4yQTIZjwEAGmjmBKCJAJ30mI13pqNBQL4/WqVQgjNCxHaCoAGJDQywj9mazBlSgs7qjQK4R5sqaJkvqMcz7Bthw1C9stwlYCrF/EebgjZFeiJ05pQi4gqQEfXm6rCTQL4IUmLO1R2UoCW3lbRhqRw5OE3++VHIVwQ0n1R2OKEotGfLDmwceQC1bZ8YQvwKrUF5AFnDIxFZAEXDte1edLwImTIoaijlTruxjiPAKs7wThu3TfpVNn2L+iUyWfD9WjStZuKTjNgHUNOULPnuAGTAinIGi2gIkZzRIBVfDDEQkJ0dJB0sbBkF+Fc0NYnsMwLah4IeBJqWhtIauqEMY9E53YJNDJIQcnUCo7t4L843uisK+8HYQdFDhznyZcsOAUmy54mM9kFEKEnozx4YSgQivkADsSldByDN8hFoHZWIJXVolDHcJtEuEQnC8FEgosaSGHfn2CjkXhBAoeRpACgjdAHwnYkiwkQjC6opkOMDBPJgT0dOgoCSWegJNDQPr89hNEj/3TtbE5GFg/E31+eJTtnPUZS78SC4bj8XA4qA9gIhyJQudkRxS0gKJPhd64CKKq4mNwozgc5tEROAHi0T8ZX3I+hG4RDkK+BDTSkEPwwOixYuSmIfS0YhCeLh40DC+4BXDXmPOQk+42Lmr4YQqc2Y+Eh9n2fMb72oudV3L46IbPupEHeRiY3n1auTk+sMPTZX9wFkobBtbPrEfC94/TncFOTeSHT/GAl70JVIZQ6glw5hz0lwryESacyI9Iobv58DhZlkhSYG0n/quv9+jmbqe+KtcTOkUwoJYvh2MEyITvst3rvi3XEzpGPF6+D53bKLB2HxYePUG35/u6bM840cGAMNDgv6A9Tvcf/NpVn3OPE8mZCAhCGGjwX0EfZ/sPTmhHLGOMzSRA1A2x8AjbYPHbSjetRDFMgZrw3RN0B8m11fFBd9FRS3y1M/dR4YETdIvMtWey39sFkabA2haJfWfmONsi85tKN64kMUyBNS3at4LeY3uAfvN3KFO+nQJxNyTC99kmp9/+Hco0XcuEffo3LE+wTU5/qHTzShBjFFhTa/gO6XvEt3bt9+4vU36YAus6DcIDbJvaZ91fph0UWFPXZ/wut7ZNrfvLdIwCa2pM31b/gG00/L3b16bJHgqkRcqE72sbDbvmL4UzRJplsK7fJDzwIdsL+wd3jzX8cA0FtqgmIfcR20n5aXeXqUIzWFPHrl/OhP/6kG4V/by7x5ruGhq1/RYhd5rthf1MpRtZVNAMwjijWoUfadu1v1bpVhYRXSyFNdpF9jXh2c/ZXtj/rXQziwgthS19NiF3Wtvs271J1FOobwWhC89+zjb7/rHSDS04euwpNF4Z8jTbzXyxW5PolEKj8Czbrn3xj+6c9ZV2barocxRyp7Xd2t2ZRC2FdcYNWUxX2dWErkxiskcTqpmE3z3DNqR3YxL1FLZwmYRnqW/x4mvuS6JSq40zfRmF3HfEt27duiuVbnDe0evYC63CV89T4Lqm1yvd4jwjrQFr+8cR4iSuw8JrlW5yntHoNBc6CCGJBNjU9HOl25xXjOnDTP+4Qkgi8TU1XXNTnaZrM6XQvgvLeQpsanLRYMPrw0yLFWQT/sSAO3a4p061Gq2pte2DaN8N6TsG3OGaOtVrtM6+gZ7DjlbrKHDHjivumPf1FXddrZ3jIPyJCZe4pE6HtRqtc9gg0Glnucskg0sg3FCn+lmhQ406C199iQFfeqn66zSpA1ucNkB03OHxpyUUuHTpn9VO1BfcdTWOm1g679J5mQGXLv2tuon6KGOf68cTnr3MgOvXv1bNRF6fCWscazTjXrI/vcSA63dX8dkwP1Y3zlw/rhC6IgWu372hej+rSesZrMu0qXPGXat/YcDdG6qWmDQAM+wGPN7O45dpBjds2LixOok5AccRnr2sATduqkZiUj9jcp4Jswm5v3bjEkXATeHqIyb1s/oa61lvjkLurw0YuGnTphdeqDqiAWh9ZyZ3IRBJBkH4Qry6iIYSrXFey+Qk5P7CPgBu3br15WoiGoHjjDLZhdxfJIEIuHdv9VzQzTgPZlis5SoEogZ87rmO6ljA8fkAswq5ESzEwD17xqqBaFyqZQdmF3IjWzVgS8tw5Tuj0m3KoNOG8XkKuYgGbG5e1lJpotJTY4isGcxJyEVe1oDLljUns7eijGGaJbKMorkLues6EKKCndF4OphLH8xZyF3Xgc3NzcOVSmNy2AisHXeiz1PI9e/RgS3NrR0VAXY1FgDMVcj1d2pAiNYKjKmKMYH2j5iKFnJ9BmB9/bzhiU5jR48ZmPl0qVAhx3VqwFaItrsTmUZzAnMbRPMXcv0EuAcD29oaJmwRp3TVmCPHLpi3EDqjEdjQcFecCCOf7jH7cu6C+Qu5vk5aohjY0LAtVP7zjXS3iQezYM5dsAAhmhl14DaIu2U2prtrzcDafVlXosUJub65BuDmzZvXjI6Wb8hJDpt9eUwShQshjUYg3s18tDzdUbH5cjiVKIWQkxaagcu3bx/N+ZIVuQafbK+x+nKfBIsUQhq3GIF4q+hRh6unFsGzjp81dXUteUyCRQs578JdZuCKnSt33irR5KF0jNXWWoG1eQ6hxQo57s49MxDvpHz7VvEja3psWPv2maFA85nkSyPkpDtrrEC0x+ntW8VUa3qsvdbmgxF0X4EJLEoIcccGRPvUQp8sDJkcbmXfMzd1wJp8p8DSCTluhO1Hr+2kTPcAXX4LX8Iut+B5JTnWxi71YPYVUZ8lEXLcjZuOQLS32/LRDlHJcu0lJSmmO4bb2PVkLEDwFTaAllIIeby5c5UFyPYfXLNm8+a7sQ4IUTTMmJDdpJhEh8eG21rr2SWPLMC6utpi81ciIfTHGyvNGdSAbGOpLdsatt01BqwZ0FXxyMUNKdBUomj+K4GvREKO++PGzVXOQLxpzxa22wQNeglcem1DB2Bd3Z59ea9AnaNEQg4hVxChDbiF7fmi6TID0ffo69AZkpz9GXOL0gkhvDdMfTAbcJ4RqPfBglcvzlFSIcQf91YXAayd2dJZouLUotRCCGHk3r1dOnBLLiWKdPV7OkvV94xRBiEK/52Re2QQzQpEvpn1naArZuWSOcokROH137lzfbwSxb55czr37evvK48ORRmFNCSpr7//+vXrZuCcRYv2Xb/e39enls9G4n/Xj4HM2VYAMQAAAABJRU5ErkJggg==;" vertex="1" parent="1">
          <mxGeometry x="433.45" y="187.55" width="35.05" height="34.9" as="geometry" />
        </mxCell>
        <mxCell id="7jXJJxEpb_EreKCAJciz-32" value="" style="edgeStyle=none;orthogonalLoop=1;jettySize=auto;html=1;rounded=0;strokeColor=#000000;exitX=1;exitY=0.5;exitDx=0;exitDy=0;exitPerimeter=0;" edge="1" parent="1">
          <mxGeometry width="80" relative="1" as="geometry">
            <mxPoint x="205" y="245" as="sourcePoint" />
            <mxPoint x="649" y="258" as="targetPoint" />
            <Array as="points">
              <mxPoint x="203" y="354" />
              <mxPoint x="649" y="351" />
            </Array>
          </mxGeometry>
        </mxCell>
        <mxCell id="7jXJJxEpb_EreKCAJciz-34" value="" style="edgeStyle=none;orthogonalLoop=1;jettySize=auto;html=1;rounded=0;strokeColor=#000000;" edge="1" parent="1" target="7jXJJxEpb_EreKCAJciz-6">
          <mxGeometry width="80" relative="1" as="geometry">
            <mxPoint x="230" y="207" as="sourcePoint" />
            <mxPoint x="230" y="251.5" as="targetPoint" />
            <Array as="points" />
          </mxGeometry>
        </mxCell>
      </root>
    </mxGraphModel>
  </diagram>
</mxfile>
